<?xml version="1.0" standalone="no"?>
<!DOCTYPE svg PUBLIC "-//W3C//DTD SVG 20010904//EN"
 "http://www.w3.org/TR/2001/REC-SVG-20010904/DTD/svg10.dtd">
<svg version="1.0" xmlns="http://www.w3.org/2000/svg"
 width="516.000000pt" height="516.000000pt" viewBox="0 0 516.000000 516.000000"
 preserveAspectRatio="xMidYMid meet">
<metadata>
Created by potrace 1.14, written by Peter Selinger 2001-2017
</metadata>
<g transform="translate(0.000000,516.000000) scale(0.100000,-0.100000)"
fill="#000000" stroke="none">
<path d="M1303 4691 c-5 -3 -9 -821 -8 -1973 l0 -1968 290 0 290 0 0 928 0
927 778 3 777 2 0 194 0 193 -757 1 c-417 0 -767 1 -778 1 -20 1 -20 8 -20
654 l0 652 1028 3 1027 2 0 194 0 193 -1309 0 c-720 1 -1313 -2 -1318 -6z"/>
</g>
</svg>
